<?xml version="1.0" standalone="no"?>
<!DOCTYPE svg PUBLIC "-//W3C//DTD SVG 20010904//EN"
 "http://www.w3.org/TR/2001/REC-SVG-20010904/DTD/svg10.dtd">
<svg version="1.0" xmlns="http://www.w3.org/2000/svg"
 width="512.000000pt" height="512.000000pt" viewBox="0 0 512.000000 512.000000"
 preserveAspectRatio="xMidYMid meet">

<g transform="translate(0.000000,512.000000) scale(0.100000,-0.100000)"
fill="#000000" stroke="none">
<path d="M754 4846 c-17 -13 -19 -29 -22 -145 -4 -128 -3 -131 22 -156 17 -17
36 -25 61 -25 l35 0 0 -110 0 -110 -38 0 c-78 0 -77 5 -80 -294 l-3 -266 -144
0 c-79 0 -156 -5 -172 -11 -56 -21 -102 -61 -128 -112 -22 -45 -25 -63 -25
-164 0 -100 2 -115 20 -133 11 -11 29 -20 40 -20 11 0 29 9 40 20 17 17 20 33
20 120 0 55 5 111 12 125 25 56 9 55 747 55 l681 0 32 -29 33 -29 3 -654 2
-653 -37 -25 c-55 -38 -120 -132 -144 -211 l-21 -69 -57 0 c-85 0 -91 -10 -91
-153 l0 -117 -74 0 c-112 0 -106 23 -106 -392 l0 -348 -490 0 -490 0 0 1060 0
1060 490 0 490 0 0 -610 c0 -597 0 -610 20 -630 25 -25 55 -25 80 0 20 20 20
33 20 674 l0 655 -22 15 c-20 14 -93 16 -590 16 -556 0 -568 0 -588 -20 -20
-20 -20 -29 -18 -1333 l3 -1312 28 -57 c35 -72 93 -130 165 -165 l57 -28 1549
-3 1549 -2 44 21 c27 13 55 37 71 62 l27 40 3 239 3 238 328 0 c317 0 329 -1
355 -21 l26 -20 0 -200 c0 -186 -1 -200 -20 -219 -19 -19 -33 -20 -273 -20
-280 0 -297 -3 -297 -60 0 -57 16 -60 304 -60 244 0 262 1 304 21 26 13 54 38
70 62 27 40 27 42 30 251 2 142 -1 225 -9 254 -13 46 -71 107 -114 118 -22 6
-25 11 -25 55 l0 49 49 0 c38 0 56 6 75 22 24 23 25 23 160 1418 147 1510 158
1658 116 1700 -20 20 -33 20 -800 20 -767 0 -780 0 -800 -20 -38 -38 -28 -212
65 -1164 47 -476 85 -872 85 -879 -1 -6 -12 14 -25 46 -13 32 -44 88 -69 125
-57 86 -335 362 -365 362 -14 0 -59 -35 -120 -92 -108 -103 -173 -145 -291
-193 -44 -18 -86 -38 -95 -45 -40 -33 3 -107 56 -96 104 20 290 127 391 224
l60 57 127 -130 c162 -165 217 -263 246 -432 l7 -43 -746 0 -746 0 0 23 c0 32
53 119 92 152 51 43 108 64 230 85 67 12 118 26 129 36 42 37 10 94 -52 94
-19 0 -72 -7 -119 -15 -47 -8 -86 -15 -87 -15 -1 0 -4 285 -5 633 -3 629 -3
632 -25 673 -28 53 -83 100 -130 113 -21 6 -102 11 -180 11 l-143 0 0 263 c0
300 1 297 -78 297 l-42 0 0 110 0 109 311 3 c294 3 311 4 325 22 10 15 14 53
14 148 0 115 -2 130 -20 148 -20 20 -33 20 -643 20 -522 0 -626 -2 -643 -14z
m1186 -156 l0 -50 -542 2 -543 3 -3 48 -3 47 545 0 546 0 0 -50z m-650 -280
l0 -110 -160 0 -160 0 0 110 0 110 160 0 160 0 0 -110z m120 -450 l0 -220
-280 0 -280 0 0 220 0 220 280 0 280 0 0 -220z m3330 75 l0 -75 -458 0 c-398
0 -460 -2 -480 -16 -26 -18 -29 -60 -5 -86 15 -17 43 -18 475 -18 l458 0 -1
-32 c0 -18 -57 -613 -127 -1323 l-127 -1290 -358 -3 -357 -2 0 223 c0 274 3
267 -106 267 l-74 0 0 119 c0 114 -1 120 -24 138 -23 19 -25 33 -115 948 -50
512 -91 936 -91 943 0 9 36 12 144 12 138 0 146 1 160 22 21 30 20 54 -4 78
-18 18 -33 20 -165 20 l-145 0 0 75 0 75 700 0 700 0 0 -75z m-1280 -2280 l0
-75 -900 0 -900 0 0 75 0 75 900 0 900 0 0 -75z m180 -765 c0 -557 0 -570 -20
-590 -20 -20 -33 -20 -1060 -20 -1027 0 -1040 0 -1060 20 -16 16 -20 33 -20
80 l0 60 830 0 c817 0 830 0 850 20 19 19 20 33 20 410 0 377 -1 391 -20 410
-20 20 -33 20 -850 20 l-830 0 0 80 0 80 1080 0 1080 0 0 -570z m-580 -20 l0
-310 -790 0 -790 0 0 310 0 310 790 0 790 0 0 -310z m1260 55 l0 -45 -280 0
-280 0 0 45 0 45 280 0 280 0 0 -45z m-2960 -402 c0 -109 3 -208 6 -220 l6
-23 -410 0 -410 0 -53 28 c-39 20 -62 41 -84 77 -29 47 -30 52 -33 192 l-3
143 490 0 491 0 0 -197z"/>
<path d="M3617 3502 c-15 -16 -17 -46 -17 -210 0 -179 1 -193 20 -212 19 -19
33 -20 420 -20 387 0 401 1 420 20 19 19 20 33 20 213 0 175 -2 196 -18 210
-17 15 -61 17 -424 17 -380 0 -406 -1 -421 -18z m743 -212 l0 -110 -320 0
-320 0 0 110 0 110 320 0 320 0 0 -110z"/>
</g>
</svg>
