<?xml version="1.0" encoding="utf-8"?>
<!-- Generator: Adobe Illustrator 27.1.1, SVG Export Plug-In . SVG Version: 6.00 Build 0)  -->
<svg version="1.1" id="Capa_1" xmlns="http://www.w3.org/2000/svg" width="32" height="32" xmlns:xlink="http://www.w3.org/1999/xlink" x="0px" y="0px"
	 viewBox="0 0 32 32" style="enable-background:new 0 0 32 32;" xml:space="preserve">
<style type="text/css">
	.st0{fill:#F1C142;}
	.st1{fill:#A0251E;}
	.st2{fill:#DF00FF;}
	.st3{opacity:0.15;enable-background:new    ;}
	.st4{opacity:0.2;fill:#FFFFFF;enable-background:new    ;}
</style>
<path class="st0" d="M1,10h30v12H1V10z"/>
<path class="st1" d="M5,4h22c2.2,0,4,1.8,4,4v3H1V8C1,5.8,2.8,4,5,4z"/>
<path class="st2" d="M27,28H5c-2.2,0-4-1.8-4-4v-3h30v3C31,26.2,29.2,28,27,28z"/>
<path class="st3" d="M27,4H5C2.8,4,1,5.8,1,8v16c0,2.2,1.8,4,4,4h22c2.2,0,4-1.8,4-4V8C31,5.8,29.2,4,27,4z M30,24c0,1.7-1.3,3-3,3
	H5c-1.7,0-3-1.3-3-3V8c0-1.7,1.3-3,3-3h22c1.7,0,3,1.3,3,3V24z"/>
<path class="st4" d="M27,5H5C3.3,5,2,6.3,2,8v1c0-1.7,1.3-3,3-3h22c1.7,0,3,1.3,3,3V8C30,6.3,28.7,5,27,5z"/>
</svg>
